<?xml version="1.0" standalone="no"?>
<!DOCTYPE svg PUBLIC "-//W3C//DTD SVG 20010904//EN"
 "http://www.w3.org/TR/2001/REC-SVG-20010904/DTD/svg10.dtd">
<svg version="1.0" xmlns="http://www.w3.org/2000/svg"
 width="1024.000000pt" height="1024.000000pt" viewBox="0 0 1024.000000 1024.000000"
 preserveAspectRatio="xMidYMid meet">

<g transform="translate(0.000000,1024.000000) scale(0.100000,-0.100000)"
fill="#000000" stroke="none">
<path d="M0 5120 l0 -5120 5120 0 5120 0 0 5120 0 5120 -5120 0 -5120 0 0
-5120z m5660 3451 c201 -31 279 -49 447 -97 200 -58 370 -126 578 -233 344
-176 606 -369 860 -634 498 -518 848 -1267 925 -1982 24 -224 8 -647 -36 -915
-34 -208 -121 -497 -216 -714 -101 -232 -271 -515 -425 -710 -119 -148 -301
-337 -452 -468 -163 -140 -475 -346 -689 -452 -289 -145 -701 -276 -1002 -320
-480 -71 -1031 -23 -1485 129 -525 174 -996 471 -1380 866 -136 140 -181 194
-280 334 -353 497 -555 1024 -605 1575 -17 196 -13 563 10 750 52 433 149 756
338 1123 240 469 549 832 976 1146 245 180 594 359 890 456 236 78 355 107
566 139 230 35 212 34 545 31 248 -2 323 -6 435 -24z m-3034 -443 c-3 -13 -6
-91 -6 -174 l0 -151 -31 -47 -32 -47 -178 2 -179 3 0 213 0 213 183 3 c100 1
197 3 216 5 30 2 33 0 27 -20z m5544 -181 c0 -113 2 -211 5 -219 4 -11 -35
-13 -212 -13 l-218 0 0 215 0 215 213 3 212 4 0 -205z m-5556 -5348 c3 -122 5
-223 4 -224 -2 -2 -96 -1 -210 2 l-208 6 0 198 c0 108 -2 203 -5 211 -4 10 16
12 102 10 60 -1 142 1 183 6 41 5 87 10 101 11 l26 1 7 -221z m5394 207 l162
7 0 -217 0 -216 -214 0 -213 0 1 218 1 218 50 -8 c28 -5 123 -6 213 -2z"/>
<path d="M4905 8229 c-104 -10 -357 -54 -459 -80 -497 -127 -991 -404 -1342
-754 -204 -204 -411 -496 -550 -777 -142 -288 -253 -625 -300 -913 -25 -156
-31 -573 -9 -723 129 -906 590 -1656 1305 -2124 369 -242 769 -399 1235 -484
121 -22 533 -31 693 -14 150 15 546 115 702 176 160 64 419 190 551 270 236
142 496 363 664 564 154 185 320 439 425 649 209 419 310 847 310 1306 -1 521
-146 1010 -452 1521 -196 328 -410 572 -684 781 -162 123 -315 221 -455 293
-129 66 -410 179 -534 216 -103 30 -362 80 -487 94 -110 11 -492 11 -613 -1z
m662 -261 c-3 -8 -6 -5 -6 6 -1 11 2 17 5 13 3 -3 4 -12 1 -19z m-250 -840
c-2 -29 -3 -6 -3 52 0 58 1 81 3 53 2 -29 2 -77 0 -105z m540 15 c-3 -10 -5
-4 -5 12 0 17 2 24 5 18 2 -7 2 -21 0 -30z m2 -37 c-2 -2 -17 -6 -34 -10 -22
-5 -26 -4 -15 4 14 9 59 15 49 6z m-1042 -188 c-3 -7 -5 -2 -5 12 0 14 2 19 5
13 2 -7 2 -19 0 -25z m-681 12 c459 -57 834 -403 934 -865 21 -94 23 -134 27
-627 6 -569 1 -665 -43 -814 -26 -91 -80 -207 -137 -296 -85 -133 -261 -286
-414 -359 -114 -54 -304 -115 -400 -128 -44 -6 -298 -12 -581 -14 l-502 -2 0
1556 0 1556 518 1 c291 1 552 -3 598 -8z m2664 -29 c150 -51 239 -107 337
-212 107 -114 162 -210 222 -387 25 -71 34 -117 38 -197 l6 -105 -175 0 c-96
0 -195 -3 -220 -6 l-44 -6 -10 86 c-15 116 -57 200 -143 287 -98 98 -198 129
-411 129 -217 -1 -320 -34 -434 -141 -212 -197 -182 -508 58 -620 35 -16 220
-68 436 -123 206 -52 413 -108 459 -125 203 -74 368 -233 448 -431 59 -146 69
-384 24 -553 -69 -261 -268 -485 -534 -599 -149 -65 -189 -70 -462 -65 -270 4
-328 15 -481 86 -205 96 -374 263 -469 462 -53 112 -123 424 -101 447 4 4 115
8 247 10 l239 3 0 -84 c0 -130 36 -228 119 -320 48 -54 138 -111 219 -139 60
-21 83 -23 229 -21 173 1 233 12 325 59 143 72 249 259 235 412 -12 128 -85
229 -208 289 -35 17 -170 60 -299 96 -129 36 -308 86 -398 111 -256 71 -410
161 -524 304 -106 133 -154 260 -165 434 -16 250 80 493 271 684 141 140 274
213 466 255 73 16 121 18 345 16 l260 -3 95 -33z m-1743 -173 c-3 -8 -6 -5 -6
6 -1 11 2 17 5 13 3 -3 4 -12 1 -19z m253 -91 c0 -2 -10 -12 -22 -23 l-23 -19
19 23 c18 21 26 27 26 19z m-74 -82 c-14 -20 -28 -45 -31 -56 -8 -25 -21 -24
-28 2 -4 15 0 23 11 26 9 2 27 20 40 39 13 20 26 34 28 31 3 -3 -6 -21 -20
-42z m-2769 -1462 c-3 -10 -5 -4 -5 12 0 17 2 24 5 18 2 -7 2 -21 0 -30z
m2850 -2435 c-2 -35 -3 -7 -3 62 0 69 1 97 3 63 2 -35 2 -91 0 -125z m540 95
c-3 -10 -5 -2 -5 17 0 19 2 27 5 18 2 -10 2 -26 0 -35z m3 -68 c0 -32 -2 -35
-27 -34 -24 2 -25 2 -5 6 17 3 22 11 22 34 0 16 2 29 5 29 3 0 5 -16 5 -35z
m-293 -42 c-2 -16 -4 -5 -4 22 0 28 2 40 4 28 2 -13 2 -35 0 -50z m-750 0 c-3
-10 -5 -4 -5 12 0 17 2 24 5 18 2 -7 2 -21 0 -30z"/>
<path d="M3452 5371 l-2 -1104 307 6 c345 8 382 14 523 84 123 62 253 199 325
342 55 111 55 105 55 661 -1 584 -4 616 -69 755 -34 72 -55 101 -123 169 -95
94 -184 145 -305 177 -72 18 -104 20 -393 17 l-315 -3 -3 -1104z"/>
</g>
</svg>
